HIERARCHY
ROOT Hips
{
  OFFSET 90.7885 88.945 -76.2838
  CHANNELS 6 Xposition Yposition Zposition Zrotation Xrotation Yrotation
  JOINT LeftUpLeg
  {
    OFFSET 8.64259 1.95398 -2.38835
    CHANNELS 3 Zrotation Xrotation Yrotation
    JOINT LeftLeg
    {
      OFFSET 43.7702 0 0
      CHANNELS 3 Zrotation Xrotation Yrotation
      JOINT LeftFoot
      {
        OFFSET 40.6238 0 0
        CHANNELS 3 Zrotation Xrotation Yrotation
        JOINT LeftToeBase
        {
          OFFSET 12.7242 0 0
          CHANNELS 3 Zrotation Xrotation Yrotation
          End Site
          {
            OFFSET 0 0 0
          }
        }
      }
    }
  }
  JOINT RightUpLeg
  {
    OFFSET -8.2249 1.95398 -2.59336
    CHANNELS 3 Zrotation Xrotation Yrotation
    JOINT RightLeg
    {
      OFFSET 43.5653 0 0
      CHANNELS 3 Zrotation Xrotation Yrotation
      JOINT RightFoot
      {
        OFFSET 40.6238 0 0
        CHANNELS 3 Zrotation Xrotation Yrotation
        JOINT RightToeBase
        {
          OFFSET 12.7242 0 0
          CHANNELS 3 Zrotation Xrotation Yrotation
          End Site
          {
            OFFSET 0 0 0
          }
        }
      }
    }
  }
  JOINT Spine
  {
    OFFSET 0.165834 0.87714 6.61349
    CHANNELS 3 Zrotation Xrotation Yrotation
    JOINT Spine1
    {
      OFFSET 7.38963 1.71661e-005 0
      CHANNELS 3 Zrotation Xrotation Yrotation
      JOINT Spine2
      {
        OFFSET 11.9445 1.14441e-005 0
        CHANNELS 3 Zrotation Xrotation Yrotation
        JOINT Spine3
        {
          OFFSET 14.7254 4.19617e-005 0
          CHANNELS 3 Zrotation Xrotation Yrotation
          JOINT Spine4
          {
            OFFSET 10.9679 0 0
            CHANNELS 3 Zrotation Xrotation Yrotation
            JOINT RightShoulder
            {
              OFFSET 2.46616 -1.6653 3.69651
              CHANNELS 3 Zrotation Xrotation Yrotation
              JOINT RightArm
              {
                OFFSET 13.0012 0 0
                CHANNELS 3 Zrotation Xrotation Yrotation
                JOINT RightForeArm
                {
                  OFFSET 28.7848 1.52588e-005 0
                  CHANNELS 3 Zrotation Xrotation Yrotation
                  JOINT RightHand
                  {
                    OFFSET 26.5688 1.52588e-005 0
                    CHANNELS 3 Zrotation Xrotation Yrotation
                    End Site
                    {
                      OFFSET 0 0 0
                    }
                  }
                }
              }
            }
            JOINT LeftShoulder
            {
              OFFSET 2.38034 -1.29275 -3.7523
              CHANNELS 3 Zrotation Xrotation Yrotation
              JOINT LeftArm
              {
                OFFSET 16.3182 6.10352e-005 0
                CHANNELS 3 Zrotation Xrotation Yrotation
                JOINT LeftForeArm
                {
                  OFFSET 27.0901 0 0
                  CHANNELS 3 Zrotation Xrotation Yrotation
                  JOINT LeftHand
                  {
                    OFFSET 24.5451 1.52588e-005 0
                    CHANNELS 3 Zrotation Xrotation Yrotation
                    End Site
                    {
                      OFFSET 0 0 0
                    }
                  }
                }
              }
            }
            JOINT Neck
            {
              OFFSET 5.0226 -0.0266342 0
              CHANNELS 3 Zrotation Xrotation Yrotation
              JOINT Head
              {
                OFFSET 6.69363 2.86102e-005 0
                CHANNELS 3 Zrotation Xrotation Yrotation
                End Site
                {
                  OFFSET 0 0 0
                }
              }
            }
          }
        }
      }
    }
  }
}
MOTION
Frames:	6
Frame Time:	0.0416667
4.85012 95.5599 -324.178 116.736 -49.0576 111.191 -168.677 11.5798 94.0759 -26.9785 64.8242 -22.2771 71.515 16.4182 6.71077 14.5193 -0.301448 2.52746 -145.466 -20.1617 130.634 19.8656 64.4908 -20.0583 84.5304 -2.05344 -1.00418 18.2677 -3.86828 9.29525 -2.50024 8.68003 -89.6158 9.54252 -4.81176 1.12894 -2.12021 -4.75742 1.34006 -24.7271 -4.92806 -0.372938 -4.71442 -4.92808 -0.372937 89.534 -32.0019 -106.912 42.6944 -19.4676 -2.6656 3.3716 -25.225 -19.2247 -25.3451 -0.775696 -7.37446 -85.8504 -51.9268 85.231 -24.4126 14.6604 7.46076 6.21361 4.6267 -15.998 -2.10744 -0.0926881 -5.21849 -5.3682 -1.87889 1.26384 -1.54759 -1.99106 -1.18197 
5.09353 94.9968 -323.788 113.03 -50.6335 106.236 -170.573 13.3614 86.1753 -24.6924 58.3965 -20.2455 71.7911 14.2082 5.40113 13.7767 0.811078 1.36845 -149.241 -21.7682 127.71 23.3114 60.5082 -23.4276 83.0508 -2.10774 -0.245938 19.8173 -3.18435 7.94019 -2.6929 8.6018 -89.7644 9.70052 -5.26179 0.885417 -1.96011 -5.21772 1.11675 -24.5811 -5.28392 -0.741472 -4.56849 -5.28391 -0.741474 87.311 -29.2877 -112.366 38.8128 -18.0513 -6.88661 4.0849 -23.0086 -17.8842 -25.2425 -0.515042 -8.11767 -86.8997 -58.1103 84.6007 -20.7342 15.618 5.52241 4.87745 2.02773 -14.7449 -2.47198 -0.0926575 -5.42178 -4.54952 -0.971991 6.79649 0.225275 -1.70385 -2.95476 
5.43106 95.0351 -324.76 109.481 -59.6762 105.524 -175.761 18.3958 80.9129 -29.4576 41.255 -7.5073 72.0973 8.85796 1.95796 15.0707 -0.152216 2.29324 -165.03 -26.2398 118.365 12.0114 40.4351 -18.0506 81.2302 -1.90309 1.86346 22.124 -2.96613 7.45054 -1.82584 8.24791 -90.1247 10.3817 -3.69435 0.0731391 -1.28449 -3.68754 0.23585 -23.8561 -3.54543 -1.04179 -3.84347 -3.54542 -1.0418 87.847 -27.7871 -112.011 37.4485 -18.4995 -10.0421 3.98859 -23.3725 -17.716 -23.1791 -0.477387 -8.71533 -87.6272 -61.5954 84.1075 -19.3539 16.7226 5.60783 3.97084 0.137232 -14.8654 -2.67498 -0.0909735 -4.91509 -2.64582 -0.557312 10.0163 -0.660577 -1.77403 -4.80914 
5.86001 95.0396 -323.818 119.8 -71.0269 115.714 -179.639 18.6158 79.0262 -29.7629 23.2606 -2.26775 68.4126 3.92948 0.120628 11.3178 -0.843022 3.49837 -179.749 -31.5707 101.532 1.34164 19.5965 -4.29922 80.5295 -5.53545 2.36151 32.0509 -3.81198 8.97282 -0.665818 8.1814 -89.9746 10.5125 -1.31454 0.167824 -1.15767 -1.30587 0.225519 -23.6987 -1.30419 -0.235091 -3.68602 -1.30418 -0.235096 87.8522 -27.6194 -112.08 38.1096 -18.9001 -10.8263 4.04449 -22.2722 -17.4485 -18.1643 -0.438316 -9.30513 -87.7397 -62.6286 84.1061 -19.8063 15.96 7.31753 3.86276 -0.907903 -14.5845 -3.20734 -0.0851497 -5.05897 -2.06859 -0.064133 10.1099 -0.999973 -1.33661 -5.07721 
5.95092 96.1724 -320.097 142.807 -78.78 137.646 179.137 17.8444 78.3357 -30.3769 14.7632 -1.11516 65.2195 1.99267 0.103965 8.74874 -2.37045 5.34605 169.485 -33.8951 88.7942 0.0261429 1.26829 -1.06736 70.8783 -5.13123 -0.0641037 38.8013 -2.65549 5.18101 0.277894 8.06162 -89.7258 10.7491 0.679936 0.48258 -0.921796 0.700517 0.452194 -23.4571 0.503459 0.664622 -3.44447 0.503464 0.664621 89.2745 -27.0844 -109.422 40.8318 -19.6423 -10.7491 4.37268 -24.4039 -17.2804 -26.3348 -0.76482 -7.1502 -87.9059 -63.9971 84.0821 -17.7596 15.3453 2.84599 2.95367 -0.131985 -5.34565 -2.8607 -0.0772372 -7.48801 -1.26432 -0.179109 10.5445 -1.87154 -1.54016 -6.23701 
6.15872 96.9197 -315.566 -177.505 -82.0667 175.259 178.989 15.5142 77.1507 -29.6705 6.91358 -1.95083 68.0664 3.19243 -1.33544 8.4052 -2.2872 5.28508 160.19 -26.0207 76.4649 -10.8858 -13.3595 0.354173 55.9535 0.923009 -1.26883 59.8411 -5.2557 19.2496 0.800602 7.87106 -89.3334 11.1217 1.90309 1.14183 -0.548316 1.95149 1.05695 -23.0867 1.47199 1.66101 -3.07407 1.47197 1.66099 88.4199 -27.8987 -110.801 41.8875 -18.3701 -8.72699 4.46354 -30.448 -17.2196 -24.4324 -0.833086 -8.76888 -88.0821 -63.4787 83.7801 -16.7875 16.4151 3.89602 2.27448 -4.2963 -8.68373 -2.95877 -0.0842105 -5.17885 -2.75228 -0.448055 8.42173 -1.38044 -1.44283 -4.8161 
